<?xml version="1.0" standalone="no"?>
<!DOCTYPE svg PUBLIC "-//W3C//DTD SVG 20010904//EN"
 "http://www.w3.org/TR/2001/REC-SVG-20010904/DTD/svg10.dtd">
<svg version="1.0" xmlns="http://www.w3.org/2000/svg"
 width="87.000000pt" height="87.000000pt" viewBox="0 0 87.000000 87.000000"
 preserveAspectRatio="xMidYMid meet">
<metadata>
Created by potrace 1.11, written by Peter Selinger 2001-2013
</metadata>
<g transform="translate(0.000000,87.000000) scale(0.100000,-0.100000)"
fill="#000000" stroke="none">
<path d="M293 549 c-81 -83 -150 -160 -151 -171 -3 -15 19 -44 79 -104 46 -46
90 -84 99 -84 8 0 86 69 173 153 l157 152 0 83 c0 121 -1 122 -115 122 l-94 0
-148 -151z m266 52 c13 -24 -9 -57 -33 -48 -23 9 -31 34 -16 52 17 20 37 19
49 -4z m-154 -71 c17 -18 17 -21 1 -45 -13 -19 -24 -25 -44 -23 -37 4 -43 49
-10 72 29 20 31 20 53 -4z m70 -68 c-14 -12 -184 -56 -191 -49 -3 3 21 13 53
22 32 9 69 20 83 25 33 11 67 12 55 2z m-51 -64 c12 -20 2 -44 -27 -62 -13 -8
-22 -6 -39 11 l-22 23 24 25 c27 28 47 29 64 3z"/>
<path d="M351 512 c-16 -29 10 -49 33 -26 9 9 15 21 13 28 -6 19 -35 18 -46
-2z"/>
<path d="M370 385 c-10 -12 -10 -19 -1 -28 14 -14 46 2 46 24 0 20 -30 23 -45
4z"/>
<path d="M670 569 c0 -90 0 -91 -33 -122 -18 -18 -88 -85 -156 -151 -112 -108
-122 -120 -107 -134 26 -26 54 -7 210 144 l146 141 0 94 c0 98 -7 119 -42 119
-16 0 -18 -10 -18 -91z"/>
</g>
</svg>
